<mxfile host="drawio-plugin" modified="2024-02-02T17:06:21.426Z" agent="5.0 (X11; Linux x86_64) AppleWebKit/537.36 (KHTML, like Gecko) Chrome/111.0.0.0 Safari/537.36" etag="NfaTMzimucpA1L2RyRpw" version="20.5.3" type="embed"><diagram id="23iRSUPoRavnBvh4doch" name="Page-1"><mxGraphModel dx="3165" dy="694" grid="0" gridSize="10" guides="1" tooltips="1" connect="1" arrows="1" fold="1" page="0" pageScale="1" pageWidth="827" pageHeight="1169" math="0" shadow="0"><root><mxCell id="0"/><mxCell id="1" parent="0"/><mxCell id="75" style="edgeStyle=orthogonalEdgeStyle;rounded=0;orthogonalLoop=1;jettySize=auto;html=1;exitX=0;exitY=0.5;exitDx=0;exitDy=0;entryX=0.875;entryY=0.5;entryDx=0;entryDy=0;entryPerimeter=0;fontSize=20;fontColor=default;" edge="1" parent="1" source="36" target="74"><mxGeometry relative="1" as="geometry"/></mxCell><mxCell id="36" value="kubernetes cluster" style="swimlane;fontSize=20;fontColor=#ffffff;whiteSpace=wrap;html=1;swimlaneLine=0;glass=0;fillColor=#0050ef;strokeColor=#001DBC;" vertex="1" collapsed="1" parent="1"><mxGeometry x="-1091" y="110" width="230" height="61.29" as="geometry"><mxRectangle x="-1091" y="110" width="1071" height="850.07" as="alternateBounds"/></mxGeometry></mxCell><mxCell id="37" value="node" style="swimlane;whiteSpace=wrap;html=1;fontSize=20;fillColor=#6a00ff;fontColor=#ffffff;strokeColor=#3700CC;" vertex="1" collapsed="1" parent="36"><mxGeometry x="47" y="276" width="270" height="40" as="geometry"><mxRectangle x="73" y="86" width="780" height="684.07" as="alternateBounds"/></mxGeometry></mxCell><mxCell id="79" style="edgeStyle=orthogonalEdgeStyle;rounded=0;orthogonalLoop=1;jettySize=auto;html=1;exitX=0;exitY=0;exitDx=0;exitDy=41;exitPerimeter=0;fontSize=20;fontColor=default;startArrow=oval;startFill=1;elbow=vertical;curved=1;endArrow=oval;endFill=1;" edge="1" parent="37" source="49" target="62"><mxGeometry relative="1" as="geometry"/></mxCell><mxCell id="49" value="ofitoo-mobile-pod" style="shape=cube;whiteSpace=wrap;html=1;boundedLbl=1;backgroundOutline=1;darkOpacity=0.05;darkOpacity2=0.1;glass=0;fontSize=20;fontColor=default;" vertex="1" parent="37"><mxGeometry x="567" y="208" width="132" height="102" as="geometry"/></mxCell><mxCell id="77" style="rounded=0;orthogonalLoop=1;jettySize=auto;html=1;exitX=0;exitY=0.5;exitDx=0;exitDy=0;fontSize=20;fontColor=default;strokeColor=default;strokeWidth=1;endArrow=oval;endFill=1;edgeStyle=orthogonalEdgeStyle;curved=1;" edge="1" parent="37" source="62" target="69"><mxGeometry relative="1" as="geometry"/></mxCell><mxCell id="62" value="ofitoo-service" style="swimlane;fontStyle=0;childLayout=stackLayout;horizontal=1;startSize=30;horizontalStack=0;resizeParent=1;resizeParentMax=0;resizeLast=0;collapsible=1;marginBottom=0;whiteSpace=wrap;html=1;glass=0;fontSize=20;fontColor=default;" vertex="1" parent="37"><mxGeometry x="266" y="237" width="175" height="120" as="geometry"><mxRectangle x="266" y="237" width="154" height="36" as="alternateBounds"/></mxGeometry></mxCell><mxCell id="63" value="port: 8080 -&amp;gt; 8080" style="text;strokeColor=none;fillColor=none;align=left;verticalAlign=middle;spacingLeft=4;spacingRight=4;overflow=hidden;points=[[0,0.5],[1,0.5]];portConstraint=eastwest;rotatable=0;whiteSpace=wrap;html=1;glass=0;fontSize=20;fontColor=default;" vertex="1" parent="62"><mxGeometry y="30" width="175" height="30" as="geometry"/></mxCell><mxCell id="64" value="port:&amp;nbsp;" style="text;strokeColor=none;fillColor=none;align=left;verticalAlign=middle;spacingLeft=4;spacingRight=4;overflow=hidden;points=[[0,0.5],[1,0.5]];portConstraint=eastwest;rotatable=0;whiteSpace=wrap;html=1;glass=0;fontSize=20;fontColor=default;" vertex="1" parent="62"><mxGeometry y="60" width="175" height="30" as="geometry"/></mxCell><mxCell id="65" value="port:&amp;nbsp;" style="text;strokeColor=none;fillColor=none;align=left;verticalAlign=middle;spacingLeft=4;spacingRight=4;overflow=hidden;points=[[0,0.5],[1,0.5]];portConstraint=eastwest;rotatable=0;whiteSpace=wrap;html=1;glass=0;fontSize=20;fontColor=default;" vertex="1" parent="62"><mxGeometry y="90" width="175" height="30" as="geometry"/></mxCell><mxCell id="69" value="ofitoo-ingress" style="swimlane;fontStyle=0;childLayout=stackLayout;horizontal=1;startSize=30;horizontalStack=0;resizeParent=1;resizeParentMax=0;resizeLast=0;collapsible=1;marginBottom=0;whiteSpace=wrap;html=1;glass=0;fontSize=20;fontColor=default;" vertex="1" collapsed="1" parent="37"><mxGeometry x="70" y="279" width="155" height="36" as="geometry"><mxRectangle x="34" y="215" width="140" height="120" as="alternateBounds"/></mxGeometry></mxCell><mxCell id="70" value="Item 1" style="text;strokeColor=none;fillColor=none;align=left;verticalAlign=middle;spacingLeft=4;spacingRight=4;overflow=hidden;points=[[0,0.5],[1,0.5]];portConstraint=eastwest;rotatable=0;whiteSpace=wrap;html=1;glass=0;fontSize=20;fontColor=default;" vertex="1" parent="69"><mxGeometry y="30" width="140" height="30" as="geometry"/></mxCell><mxCell id="71" value="Item 2" style="text;strokeColor=none;fillColor=none;align=left;verticalAlign=middle;spacingLeft=4;spacingRight=4;overflow=hidden;points=[[0,0.5],[1,0.5]];portConstraint=eastwest;rotatable=0;whiteSpace=wrap;html=1;glass=0;fontSize=20;fontColor=default;" vertex="1" parent="69"><mxGeometry y="60" width="140" height="30" as="geometry"/></mxCell><mxCell id="72" value="Item 3" style="text;strokeColor=none;fillColor=none;align=left;verticalAlign=middle;spacingLeft=4;spacingRight=4;overflow=hidden;points=[[0,0.5],[1,0.5]];portConstraint=eastwest;rotatable=0;whiteSpace=wrap;html=1;glass=0;fontSize=20;fontColor=default;" vertex="1" parent="69"><mxGeometry y="90" width="140" height="30" as="geometry"/></mxCell><mxCell id="78" style="edgeStyle=orthogonalEdgeStyle;rounded=0;orthogonalLoop=1;jettySize=auto;html=1;exitX=0;exitY=0.5;exitDx=0;exitDy=0;entryX=0;entryY=0.5;entryDx=0;entryDy=0;fontSize=20;fontColor=default;curved=1;endArrow=oval;endFill=1;" edge="1" parent="36" source="69" target="36"><mxGeometry relative="1" as="geometry"><Array as="points"><mxPoint x="64" y="352"/><mxPoint x="64" y="364"/><mxPoint x="29" y="364"/><mxPoint x="29" y="368"/></Array></mxGeometry></mxCell><mxCell id="74" value="Internet" style="ellipse;shape=cloud;whiteSpace=wrap;html=1;glass=0;fontSize=20;fontColor=#ffffff;fillColor=#0050ef;strokeColor=#001DBC;gradientColor=#00331A;gradientDirection=north;" vertex="1" parent="1"><mxGeometry x="-1840" y="281" width="537" height="389.87" as="geometry"/></mxCell></root></mxGraphModel></diagram></mxfile>